<svg width="10" height="10" viewBox="0 0 10 10" fill="none" xmlns="http://www.w3.org/2000/svg">
<path d="M9.84016 2.54042L9.5126 2.21058C9.40951 2.10757 9.27235 2.05082 9.12577 2.05082C8.97926 2.05082 8.84194 2.10757 8.73885 2.21058L5.00224 5.94735L1.26131 2.20643C1.15838 2.10342 1.02107 2.04675 0.87456 2.04675C0.728055 2.04675 0.590655 2.10342 0.487646 2.20643L0.160001 2.53424C-0.0533338 2.74741 -0.0533338 3.09465 0.160001 3.30782L4.61402 7.77786C4.71695 7.88078 4.8541 7.95331 5.00191 7.95331H5.00362C5.1502 7.95331 5.28736 7.8807 5.39029 7.77786L9.84016 3.31993C9.94325 3.21701 9.99984 3.0757 10 2.9292C10 2.78261 9.94325 2.64326 9.84016 2.54042Z" fill="#77838F"/>
</svg>
